<svg xmlns="http://www.w3.org/2000/svg" viewBox="0 0 240 240" role="img" aria-label="Hermes: kanatlı şapkalı genç mermer büst"><defs><clipPath id="c"><circle cx="120" cy="120" r="113"/></clipPath></defs><circle cx="120" cy="120" r="114" fill="#101010"/><g clip-path="url(#c)"><circle cx="120" cy="92" r="68" fill="#8b0d0d"/><g transform="translate(120 252) scale(1.15) translate(-120 -238)"><circle cx="90.0" cy="88.0" r="9" fill="#d7ccb2" stroke="#7c735b" stroke-width="1.4"/><path d="M85.5 88.9a4.5 4.5 0 1 1 8.1 3.1" fill="none" stroke="#7c735b" stroke-width="1.1" stroke-linecap="round"/><circle cx="88.0" cy="102.0" r="9" fill="#d7ccb2" stroke="#7c735b" stroke-width="1.4"/><path d="M83.5 102.9a4.5 4.5 0 1 1 8.1 3.1" fill="none" stroke="#7c735b" stroke-width="1.1" stroke-linecap="round"/><circle cx="89.0" cy="116.0" r="9" fill="#d7ccb2" stroke="#7c735b" stroke-width="1.4"/><path d="M84.5 116.9a4.5 4.5 0 1 1 8.1 3.1" fill="none" stroke="#7c735b" stroke-width="1.1" stroke-linecap="round"/><circle cx="93.0" cy="128.0" r="9" fill="#d7ccb2" stroke="#7c735b" stroke-width="1.4"/><path d="M88.5 128.9a4.5 4.5 0 1 1 8.1 3.1" fill="none" stroke="#7c735b" stroke-width="1.1" stroke-linecap="round"/><circle cx="150.0" cy="88.0" r="9" fill="#d7ccb2" stroke="#7c735b" stroke-width="1.4"/><path d="M145.5 88.9a4.5 4.5 0 1 1 8.1 3.1" fill="none" stroke="#7c735b" stroke-width="1.1" stroke-linecap="round"/><circle cx="152.0" cy="102.0" r="9" fill="#d7ccb2" stroke="#7c735b" stroke-width="1.4"/><path d="M147.5 102.9a4.5 4.5 0 1 1 8.1 3.1" fill="none" stroke="#7c735b" stroke-width="1.1" stroke-linecap="round"/><circle cx="151.0" cy="116.0" r="9" fill="#d7ccb2" stroke="#7c735b" stroke-width="1.4"/><path d="M146.5 116.9a4.5 4.5 0 1 1 8.1 3.1" fill="none" stroke="#7c735b" stroke-width="1.1" stroke-linecap="round"/><circle cx="147.0" cy="128.0" r="9" fill="#d7ccb2" stroke="#7c735b" stroke-width="1.4"/><path d="M142.5 128.9a4.5 4.5 0 1 1 8.1 3.1" fill="none" stroke="#7c735b" stroke-width="1.1" stroke-linecap="round"/><path d="M26 240V216C30 192 62 180 94 173H146C178 180 210 192 214 216V240Z" fill="#d7ccb2" stroke="#7c735b" stroke-width="1.6"/><path d="M120 173H146C178 180 210 192 214 216V240H120Z" fill="#7c735b" opacity=".22"/><path d="M94 173 120 210 146 173" fill="none" stroke="#7c735b" stroke-width="2.4" stroke-linejoin="round"/><path d="M64 192C74 208 84 222 88 240M176 192C166 208 156 222 152 240M100 188C104 206 108 222 110 240M140 188C136 206 132 222 130 240" fill="none" stroke="#7c735b" stroke-width="1.6" stroke-linecap="round"/><path d="M103 126V178C112 184 128 184 137 178V126Z" fill="#d7ccb2" stroke="#7c735b" stroke-width="1.6"/><path d="M120 126H137V178C131 181 125 183 120 183Z" fill="#7c735b" opacity=".22"/><path d="M103 144C112 156 128 156 137 144V160C128 170 112 170 103 160Z" fill="#7c735b" opacity=".18"/><path d="M89 90C89 67 103 55 120 55S151 67 151 90C151 112 141 134 120 142 99 134 89 112 89 90Z" fill="#d7ccb2" stroke="#7c735b" stroke-width="1.6"/><path d="M89 90C89 67 103 55 120 55S151 67 151 90C151 112 141 134 120 142 99 134 89 112 89 90Z" fill="#7c735b" opacity="0" /><clipPath id="fc"><path d="M89 90C89 67 103 55 120 55S151 67 151 90C151 112 141 134 120 142 99 134 89 112 89 90Z"/></clipPath><rect x="120" y="50" width="40" height="100" fill="#7c735b" opacity=".2" clip-path="url(#fc)"/><path d="M98 87Q108 81 117 86M123 86Q132 81 142 87" fill="none" stroke="#7c735b" stroke-width="3" stroke-linecap="round"/><path d="M100 95Q108 90 116 95Q108 99 100 95Z" fill="#ece4cf" stroke="#7c735b" stroke-width="1.4"/><path d="M124 95Q132 90 140 95Q132 99 124 95Z" fill="#ece4cf" stroke="#7c735b" stroke-width="1.4"/><path d="M120 93L117 112Q112 118 118 120Q120 121 122 120Q128 118 123 112Z" fill="none" stroke="#7c735b" stroke-width="1.8" stroke-linejoin="round"/><path d="M123 95L123 112" stroke="#7c735b" stroke-width="2.4" opacity=".25"/><path d="M110 127Q120 130 130 127" fill="none" stroke="#7c735b" stroke-width="2.2" stroke-linecap="round"/><path d="M113 131Q120 134 127 131" fill="none" stroke="#7c735b" stroke-width="1.2" stroke-linecap="round"/><circle cx="100.0" cy="78.0" r="7" fill="#d7ccb2" stroke="#7c735b" stroke-width="1.4"/><path d="M96.5 78.7a3.5 3.5 0 1 1 6.3 2.4" fill="none" stroke="#7c735b" stroke-width="1.1" stroke-linecap="round"/><circle cx="109.0" cy="76.7" r="7" fill="#d7ccb2" stroke="#7c735b" stroke-width="1.4"/><path d="M105.5 77.4a3.5 3.5 0 1 1 6.3 2.4" fill="none" stroke="#7c735b" stroke-width="1.1" stroke-linecap="round"/><circle cx="118.0" cy="75.3" r="7" fill="#d7ccb2" stroke="#7c735b" stroke-width="1.4"/><path d="M114.5 76.0a3.5 3.5 0 1 1 6.3 2.4" fill="none" stroke="#7c735b" stroke-width="1.1" stroke-linecap="round"/><circle cx="127.0" cy="76.0" r="7" fill="#d7ccb2" stroke="#7c735b" stroke-width="1.4"/><path d="M123.5 76.8a3.5 3.5 0 1 1 6.3 2.4" fill="none" stroke="#7c735b" stroke-width="1.1" stroke-linecap="round"/><circle cx="136.0" cy="77.4" r="7" fill="#d7ccb2" stroke="#7c735b" stroke-width="1.4"/><path d="M132.5 78.1a3.5 3.5 0 1 1 6.3 2.4" fill="none" stroke="#7c735b" stroke-width="1.1" stroke-linecap="round"/><path d="M92 64C74 52 54 52 36 62 52 63 64 68 72 74 58 76 48 82 40 92 58 87 74 85 90 85Z" fill="#d7ccb2" stroke="#7c735b" stroke-width="1.6" stroke-linejoin="round"/><path d="M84 66C72 61 60 60 50 63M82 74C72 72 62 73 54 77M86 82C76 82 66 84 58 88" fill="none" stroke="#7c735b" stroke-width="1.3"/><g transform="translate(240 0) scale(-1 1)"><path d="M92 64C74 52 54 52 36 62 52 63 64 68 72 74 58 76 48 82 40 92 58 87 74 85 90 85Z" fill="#d7ccb2" stroke="#7c735b" stroke-width="1.6" stroke-linejoin="round"/><path d="M84 66C72 61 60 60 50 63M82 74C72 72 62 73 54 77M86 82C76 82 66 84 58 88" fill="none" stroke="#7c735b" stroke-width="1.3"/></g><path d="M86 75C84 41 156 41 154 75C140 67 100 67 86 75Z" fill="#b08a3e" stroke="#7c735b" stroke-width="1.6" stroke-linejoin="round"/><path d="M154 75C156 41 120 41 120 41V69C134 69 146 71 154 75Z" fill="#7c735b" opacity=".25"/><path d="M88 75C100 69 140 69 152 75" fill="none" stroke="#7c735b" stroke-width="1.6"/></g></g><circle cx="120" cy="120" r="114" fill="none" stroke="#b08a3e" stroke-width="2.4"/><circle cx="120" cy="120" r="107" fill="none" stroke="#b08a3e" stroke-opacity=".45" stroke-width="1.2" stroke-dasharray="1.5 7" stroke-linecap="round"/></svg>